<?xml version="1.0" encoding="UTF-8"?>
<svg width="512px" height="512px" viewBox="0 0 512 512" version="1.1" xmlns="http://www.w3.org/2000/svg">
  <rect width="512" height="512" rx="128" fill="#1D7BE0"/>
  <path d="M128,128 L384,128 C424.786,128 458,161.214 458,202 L458,310 C458,350.786 424.786,384 384,384 L128,384 C87.2141,384 54,350.786 54,310 L54,202 C54,161.214 87.2141,128 128,128 Z" fill="#FFFFFF"/>
  <path d="M128,159 L384,159 C407.196,159 426,177.804 426,201 L426,209 L86,209 L86,201 C86,177.804 104.804,159 128,159 Z" fill="#1D7BE0"/>
  <circle cx="117" cy="184" r="12" fill="#FFFFFF"/>
  <circle cx="157" cy="184" r="12" fill="#FFFFFF"/>
  <circle cx="197" cy="184" r="12" fill="#FFFFFF"/>
  <rect x="86" y="240" width="170" height="24" rx="12" fill="#1D7BE0"/>
  <rect x="86" y="290" width="340" height="24" rx="12" fill="#1D7BE0"/>
  <rect x="86" y="340" width="260" height="24" rx="12" fill="#1D7BE0"/>
</svg>